<svg id="Layer_1" data-name="Layer 1" xmlns="http://www.w3.org/2000/svg" viewBox="0 0 883.14 557.32"><defs><style>.cls-1{fill:#464e99;}.cls-2{fill:#11123b;}.cls-3{fill:#11133c;}.cls-4{fill:#454f9a;}.cls-5{fill:#757db9;}.cls-6{fill:#f3f3f3;}</style></defs><title>GST common portal final</title><path class="cls-1" d="M590.95,622.06H418.57v-64.7A10.44,10.44,0,0,1,429,546.92H590.95a18.87,18.87,0,0,0,18.78-18.78q0-8-5.53-10.5a32.21,32.21,0,0,0-13.26-2.48H512.49a91,91,0,0,1-36.74-7.46,94.43,94.43,0,0,1-49.86-50.28,95.83,95.83,0,0,1,0-73.48,93.09,93.09,0,0,1,49.86-49.86,92.5,92.5,0,0,1,36.74-7.32H654.82a10.44,10.44,0,0,1,10.44,10.44v64.7H512.49a18.87,18.87,0,0,0-18.78,18.78,18.85,18.85,0,0,0,5.53,13.68A17.85,17.85,0,0,0,512.49,440h78.46a102,102,0,0,1,36.46,6.49,92.24,92.24,0,0,1,29.84,18.09,85.6,85.6,0,0,1,20.17,27.9,84.66,84.66,0,0,1,7.46,35.64,90.07,90.07,0,0,1-7.46,36.6,98.13,98.13,0,0,1-20.17,29.83,92.68,92.68,0,0,1-29.84,20.17A91.73,91.73,0,0,1,590.95,622.06Z" transform="translate(-56.71 -208.52)"/><path class="cls-1" d="M882.66,622.06a128.39,128.39,0,0,1-51.38-10.36,133.65,133.65,0,0,1-70.58-70.58,128.45,128.45,0,0,1-10.36-51.38V401.89H713.6v-64.7A10.44,10.44,0,0,1,724,326.75h26.3V208.52H815A10.44,10.44,0,0,1,825.49,219V326.75H929.41a10.44,10.44,0,0,1,10.44,10.44v64.7H825.49v87.85A56,56,0,0,0,829.9,512a56.75,56.75,0,0,0,12.16,18.1,58.23,58.23,0,0,0,18.23,12.29,55.52,55.52,0,0,0,22.37,4.56h46.74a10.44,10.44,0,0,1,10.44,10.44v64.7Z" transform="translate(-56.71 -208.52)"/><path class="cls-2" d="M406.12,647a24.7,24.7,0,0,1,9.92,2,26.06,26.06,0,0,1,6.76,4.23,1.78,1.78,0,0,1,.09,2.6l-3.54,3.55a1.78,1.78,0,0,1-2.41.09,16.27,16.27,0,0,0-10.82-3.91,16.72,16.72,0,0,0-6.64,1.33,17.16,17.16,0,0,0-5.42,3.65,17.62,17.62,0,0,0-3.69,5.42,16.82,16.82,0,0,0,0,13.28,18,18,0,0,0,3.65,5.42,16.59,16.59,0,0,0,5.42,3.65,16.93,16.93,0,0,0,6.68,1.33,16.52,16.52,0,0,0,10.83-3.87,1.78,1.78,0,0,1,2.38.09l3.54,3.5a1.78,1.78,0,0,1-.08,2.61,26.12,26.12,0,0,1-6.75,4.23,25.59,25.59,0,0,1-19.88,0,26.6,26.6,0,0,1-8.15-5.49,25.87,25.87,0,0,1-5.53-8.12,25.18,25.18,0,0,1,0-19.8A26.11,26.11,0,0,1,396.16,649,24.66,24.66,0,0,1,406.12,647Z" transform="translate(-56.71 -208.52)"/><path class="cls-2" d="M590.87,671.83v26.32h-8.48v-46.9a1.77,1.77,0,0,1,3-1.25l21.31,21.31a1.77,1.77,0,0,0,2.51,0L630.62,650a1.77,1.77,0,0,1,3,1.26v46.91H625V671.84a1.77,1.77,0,0,0-3-1.25l-12.75,12.8a1.77,1.77,0,0,1-2.51,0L593.9,670.57A1.77,1.77,0,0,0,590.87,671.83Z" transform="translate(-56.71 -208.52)"/><path class="cls-2" d="M693.92,671.83v26.32h-8.48v-46.9a1.77,1.77,0,0,1,3-1.25l21.31,21.31a1.77,1.77,0,0,0,2.51,0L733.67,650a1.77,1.77,0,0,1,3,1.26v46.91h-8.63V671.84a1.77,1.77,0,0,0-3-1.25l-12.75,12.8a1.77,1.77,0,0,1-2.51,0l-12.83-12.82A1.77,1.77,0,0,0,693.92,671.83Z" transform="translate(-56.71 -208.52)"/><path class="cls-2" d="M814.08,647a25.81,25.81,0,0,1,25.67,25.59,24.21,24.21,0,0,1-7.6,18.07A25.56,25.56,0,1,1,814.08,647Zm0,8.56a17.06,17.06,0,1,0,17,17,17.12,17.12,0,0,0-17-17Z" transform="translate(-56.71 -208.52)"/><path class="cls-2" d="M390.67,750v15.26h-8.48V715.86a1.77,1.77,0,0,1,1.77-1.77h23.82A16.38,16.38,0,0,1,419.65,719a17.18,17.18,0,0,1,5.16,12.25,17,17,0,0,1-17,17H392.44A1.77,1.77,0,0,0,390.67,750Zm0-25.59V737.9a1.77,1.77,0,0,0,1.77,1.77h15.34a8.56,8.56,0,0,0,8.48-8.7,8.48,8.48,0,0,0-2.5-5.83,8.17,8.17,0,0,0-6-2.51H392.44A1.77,1.77,0,0,0,390.67,724.41Z" transform="translate(-56.71 -208.52)"/><path class="cls-2" d="M619.53,765.27l-9.37-16.15a1.77,1.77,0,0,0-1.54-.88H597a1.77,1.77,0,0,0-1.77,1.77v15.26h-8.48V715.86a1.77,1.77,0,0,1,1.77-1.77H612.3a17,17,0,0,1,14,26.7,16.73,16.73,0,0,1-5.83,5.33,1.79,1.79,0,0,0-.73,2.46l9.59,16.7Zm-7.23-42.63H597a1.77,1.77,0,0,0-1.77,1.77v13.42a1.77,1.77,0,0,0,1.77,1.77l15.35.07a8.16,8.16,0,0,0,6-2.51,8.49,8.49,0,0,0,2.5-5.83,8.56,8.56,0,0,0-8.48-8.7Z" transform="translate(-56.71 -208.52)"/><path class="cls-2" d="M689.71,714.08h42.71v8.56H717.16a1.77,1.77,0,0,0-1.77,1.77v40.86h-8.56V724.41a1.77,1.77,0,0,0-1.77-1.77H689.71Z" transform="translate(-56.71 -208.52)"/><path class="cls-2" d="M824.82,756.71H803.48a1.77,1.77,0,0,0-1.58,1L798,765.27h-9.52l24-48a1.77,1.77,0,0,1,3.17,0l24,48H830.2l-3.79-7.58A1.77,1.77,0,0,0,824.82,756.71Zm-15.36-8.48h9.31a1.77,1.77,0,0,0,1.59-2.57l-4.65-9.31a1.77,1.77,0,0,0-3.17,0l-4.65,9.31A1.77,1.77,0,0,0,809.46,748.23Z" transform="translate(-56.71 -208.52)"/><path class="cls-2" d="M905.77,714.08h8.48v40.86a1.77,1.77,0,0,0,1.77,1.77h23.82v8.56h-32.3a1.77,1.77,0,0,1-1.77-1.77Z" transform="translate(-56.71 -208.52)"/><path class="cls-2" d="M895.84,698.08v-47.2a1.77,1.77,0,0,1,3-1.32L927,674.91a1.77,1.77,0,0,0,3-1.32v-26.7h8.56v47.28a1.77,1.77,0,0,1-3,1.32l-28.23-25.36a1.77,1.77,0,0,0-3,1.32v26.63Z" transform="translate(-56.71 -208.52)"/><path class="cls-1" d="M361.75,326.75H293.13v25.76a177.72,177.72,0,0,0-20.62-11.64A154,154,0,0,0,244,330.5a119.77,119.77,0,0,0-29.67-3.75,152.7,152.7,0,0,0-61.22,12.39A156.35,156.35,0,0,0,103,373.43,161.14,161.14,0,0,0,69.1,425.29q-12.39,30-12.39,64.83,0,38,12.39,68.29T103,609.54a149,149,0,0,0,50.14,32.13,166.28,166.28,0,0,0,61.22,11.24,211.53,211.53,0,0,0,21.18-1.16,124.35,124.35,0,0,0,21.9-4.18,93.12,93.12,0,0,0,19.16-7.78,34.81,34.81,0,0,0,13.25-12.24A119.35,119.35,0,0,1,281.3,650a63.52,63.52,0,0,1-36.16,31.84q-13,4.75-31.4,4.76l-27.85-.41a10.89,10.89,0,0,0-11,10.89v67.6l39.47.58a152.73,152.73,0,0,0,61.22-12.39,161.15,161.15,0,0,0,50.13-33.71,158.61,158.61,0,0,0,33.86-49.85,151.68,151.68,0,0,0,12.39-61.08V336.91A10.16,10.16,0,0,0,361.75,326.75ZM286.48,521.38a90,90,0,0,1-16.85,26.8,83.88,83.88,0,0,1-24.92,18.73,67.54,67.54,0,0,1-30.4,7.06,78.6,78.6,0,0,1-30.4-5.91,72.18,72.18,0,0,1-24.78-16.85,79.38,79.38,0,0,1-16.57-26.36q-6-15.41-6-34.72,0-20.16,6-35.87a75.72,75.72,0,0,1,16.57-26.36,69.24,69.24,0,0,1,24.78-16.13,84.13,84.13,0,0,1,30.4-5.48,67.64,67.64,0,0,1,30.4,7.06,83.93,83.93,0,0,1,24.92,18.73,90,90,0,0,1,16.85,26.79,82,82,0,0,1,0,62.52Z" transform="translate(-56.71 -208.52)"/><path id="_4" data-name=" 4" class="cls-3" d="M541,667a56.5,56.5,0,0,0-80.73,0,58.53,58.53,0,0,0,0,81.91,56.5,56.5,0,0,0,80.73,0A58.53,58.53,0,0,0,541,667Z" transform="translate(-56.71 -208.52)"/><path id="_3" data-name=" 3" class="cls-4" d="M458.58,703c3.13-20.7,20.77-36.57,42-36.57,23.47,0,42.53,19.34,42.53,43.16A43.36,43.36,0,0,1,534,736.36a42.2,42.2,0,0,0-.47-44.06,40.44,40.44,0,0,1,3.72,17c0,22.15-17.72,40.14-39.56,40.14-21.48,0-39-17.41-39.54-39.07q0-.41,0-.83v-.24A40.94,40.94,0,0,1,458.58,703Z" transform="translate(-56.71 -208.52)"/><path id="_2" data-name=" 2" class="cls-5" d="M503.4,687.06c10.74-.5,20.88,5.38,24.29,18.66,4,15.77-6.77,31.25-25.51,32-16.24.64-29.45-13.21-29.45-29.7a29.69,29.69,0,0,1,29.45-29.89,29.05,29.05,0,0,1,7.44,1,29.89,29.89,0,0,0-32.58,29c0,3.57.83,8.3,2.51,11.42,5.63,10.41,15.37,14,23.75,12.83,9.29-1.31,13.12-6.22,15.23-9.44l.11-.13a24.85,24.85,0,0,1-16.76,6.72c-11.84,0-19.9-9.17-20-21.47-.06-11.59,9.61-21,21.45-21Z" transform="translate(-56.71 -208.52)"/><ellipse id="_1" data-name=" 1" class="cls-6" cx="444.31" cy="499.6" rx="14.4" ry="14.61"/></svg>